<svg xmlns="http://www.w3.org/2000/svg" viewBox="0 0 75.2 75.2">
<linearGradient id="a" gradientUnits="userSpaceOnUse" x2="74.46" y1="37.49" y2="37.49"><stop offset="0" stop-color="#ec008c"/><stop offset="1" stop-color="#682b8d"/></linearGradient><linearGradient id="b" gradientUnits="userSpaceOnUse" x2="74.46" y1="37.49" y2="37.49"><stop offset="0" stop-color="#682b8d"/><stop offset="1" stop-color="#ec008c"/></linearGradient><path d="M45 75H2.6a2.6 2.6 0 1 1 0-5.19h42.3c.15 0 10.61 0 17.68-6.92 4.42-4.4 6.68-10.69 6.68-18.71v-4.26a2.54 2.54 0 0 1-1.4-1.26c-4-8-16.6-16.34-36.34-24.07A263.13 263.13 0 0 0 2 5.12a2.6 2.6 0 0 1 1.23-5c2.19.54 50 12.34 66 31.37v-.7a2.6 2.6 0 0 1 2.6-2.53 2.6 2.6 0 0 1 2.57 2.6v13.32c0 9.49-2.79 17-8.27 22.43C57.94 74.71 46.5 75 45 75z" fill="url(#a)" clip-path="url(#a)"/><path d="M2.6 75a2.6 2.6 0 0 1-.6-5.14c18.72-4.55 67.28-20.43 67.28-39 0-8-2.26-14.35-6.72-18.72-7.11-7-17.48-6.89-17.6-6.89H2.6A2.6 2.6 0 0 1 2.6 0h42.3c.47 0 12.63-.12 21.29 8.38 5.48 5.39 8.27 12.94 8.27 22.43 0 11.41-12.19 22.33-36.22 32.46a262.28 262.28 0 0 1-35 11.64 2.54 2.54 0 0 1-.64.09z" fill="url(#b)" clip-path="url(#b)"/><path d="M501.2 21.59a2.31 2.31 0 0 1-.87-.46.41.41 0 0 1-.16-.33.41.41 0 0 1 .08-.25.28.28 0 0 1 .2-.1.56.56 0 0 1 .27.11 2.64 2.64 0 0 0 1.62.53 1.72 1.72 0 0 0 1-.24.81.81 0 0 0 .34-.69.57.57 0 0 0-.32-.53 3.91 3.91 0 0 0-1-.33 6.85 6.85 0 0 1-1.11-.33 1.77 1.77 0 0 1-.68-.5 1.3 1.3 0 0 1-.24-.81 1.44 1.44 0 0 1 .27-.86 1.73 1.73 0 0 1 .75-.6 2.68 2.68 0 0 1 1.09-.21 3.21 3.21 0 0 1 1 .16 2.45 2.45 0 0 1 .82.47.44.44 0 0 1 .16.33.36.36 0 0 1-.09.24.24.24 0 0 1-.19.11.56.56 0 0 1-.27-.11 2.5 2.5 0 0 0-.69-.4 2 2 0 0 0-.78-.13 1.59 1.59 0 0 0-1 .26.8.8 0 0 0-.34.69.64.64 0 0 0 .3.58 3.12 3.12 0 0 0 1 .36 9.28 9.28 0 0 1 1.14.33 1.68 1.68 0 0 1 .69.48 1.07 1.07 0 0 1 .26.77 1.41 1.41 0 0 1-.27.85 1.57 1.57 0 0 1-.75.57 2.75 2.75 0 0 1-1.11.21 4 4 0 0 1-1.12-.17zm9.8-5.46a.4.4 0 0 1 .11.3v4.91a.38.38 0 0 1-.1.29.35.35 0 0 1-.27.1.36.36 0 0 1-.27-.1.42.42 0 0 1-.09-.29v-3.72l-1.57 3a.46.46 0 0 1-.39.28.48.48 0 0 1-.4-.28l-1.57-3v3.69a.38.38 0 0 1-.1.29.33.33 0 0 1-.27.1.36.36 0 0 1-.27-.1.46.46 0 0 1-.1-.29v-4.88a.41.41 0 0 1 .12-.3.36.36 0 0 1 .28-.12.45.45 0 0 1 .4.29l1.95 3.7 1.89-3.66a.45.45 0 0 1 .39-.29.37.37 0 0 1 .26.08z" fill="#39607a" clip-path="url(#a)"/>
 <defs>
    <clipPath id="a">
      <rect width="32" height="32" rx="16" fill="#fff" />
    </clipPath>
  </defs>
   <defs>
    <clipPath id="b">
      <rect width="32" height="32" rx="16" fill="#fff" />
    </clipPath>
  </defs>
</svg>